<?xml version="1.0" standalone="no"?>
<!DOCTYPE svg PUBLIC "-//W3C//DTD SVG 20010904//EN"
 "http://www.w3.org/TR/2001/REC-SVG-20010904/DTD/svg10.dtd">
<svg version="1.0" xmlns="http://www.w3.org/2000/svg"
 width="257.000000pt" height="675.000000pt" viewBox="0 0 257.000000 675.000000"
 preserveAspectRatio="xMidYMid meet">

<g transform="translate(0.000000,675.000000) scale(0.100000,-0.100000)"
fill="#373F51" stroke="none">
<path d="M1175 6714 c-16 -3 -102 -14 -189 -24 -279 -35 -480 -86 -628 -161
-149 -75 -313 -214 -306 -260 4 -29 455 -420 478 -414 8 2 45 15 82 29 87 33
358 82 531 97 140 11 392 0 477 -21 19 -5 78 -16 130 -25 101 -17 214 -47 267
-72 l32 -15 233 199 c162 138 234 206 236 222 7 46 -157 185 -306 260 -86 43
-246 96 -368 120 -218 44 -576 79 -669 65z"/>
<path d="M67 6162 c-3 -4 -7 -150 -8 -323 l-2 -315 283 -569 c155 -314 298
-604 318 -645 l35 -75 25 105 c13 58 64 267 112 465 48 198 98 404 111 459
l24 99 -42 36 c-22 20 -219 200 -438 401 -218 201 -401 366 -405 368 -5 2 -11
-1 -13 -6z"/>
<path d="M2304 6002 c-100 -92 -297 -273 -438 -402 -141 -129 -256 -240 -256
-247 0 -6 29 -130 64 -275 35 -145 91 -380 125 -523 34 -143 65 -273 70 -290
7 -29 9 -27 48 55 22 47 166 339 319 650 l279 565 -5 314 c-3 197 -9 315 -15
317 -5 2 -92 -72 -191 -164z"/>
<path d="M1062 5368 c-33 -7 -46 -16 -54 -36 -8 -21 -90 -344 -122 -484 -2
-10 3 -23 12 -30 8 -7 58 -64 110 -127 140 -168 109 -151 277 -151 168 0 137
-17 277 151 52 63 102 120 110 127 9 7 14 20 12 30 -32 139 -114 463 -122 484
-9 21 -21 28 -62 37 -62 13 -378 13 -438 -1z"/>
<path d="M1031 4420 c-5 -8 -11 -27 -15 -41 -14 -62 -236 -1412 -236 -1440 0
-21 4 -29 14 -27 8 2 192 156 408 343 217 187 411 354 433 372 l40 31 -58 352
c-59 354 -75 427 -93 423 -46 -8 -318 -12 -392 -6 -80 8 -95 7 -101 -7z"/>
<path d="M1223 3228 c-235 -205 -438 -380 -450 -388 -18 -13 -37 -86 -128
-485 -59 -258 -132 -576 -162 -705 -30 -129 -57 -245 -60 -258 -3 -14 0 -28 9
-35 8 -7 185 -284 393 -617 412 -660 421 -674 441 -691 30 -25 47 -1 529 771
180 289 334 530 342 537 12 9 0 74 -82 430 -146 633 -154 669 -180 788 -13 61
-40 202 -59 315 -20 113 -41 223 -48 245 -6 22 -27 134 -47 250 -29 167 -39
210 -52 213 -10 2 -190 -148 -446 -370z m-438 -1745 c28 -32 57 -69 65 -82 15
-23 16 -23 83 65 37 49 83 107 103 129 34 39 35 39 49 20 87 -124 182 -249
190 -251 6 -2 33 30 62 69 140 194 144 199 157 188 7 -6 48 -56 92 -112 43
-56 87 -111 96 -123 21 -26 19 -28 132 127 l85 118 74 -93 c94 -119 117 -153
117 -170 0 -7 -139 -233 -308 -503 l-307 -490 -190 0 -190 0 -312 498 c-172
275 -313 504 -313 511 0 7 8 21 18 32 10 10 53 63 95 117 l78 98 37 -44 c20
-25 60 -71 87 -104z"/>
</g>
</svg>
